<svg id="Layer_1" xmlns="http://www.w3.org/2000/svg" width="260" height="53.549" viewBox="0 0 260 53.549"><style>.st0{fill:#fff}.st1{fill:#666}</style><path class="st1" d="M25.8 41.585c.576-.506 1.081-.506 1.585 0l4.396 4.18c.433.432.505 1.009.072 1.513-3.315 3.82-8.216 6.271-13.837 6.271C7.855 53.549 0 45.405 0 35.025c0-10.378 7.855-18.521 18.017-18.521 5.477 0 10.306 2.45 13.621 6.27.432.505.36 1.081-.072 1.514L27.17 28.54c-.504.505-1.009.433-1.585-.072-2.018-1.801-4.108-3.17-7.351-3.17-5.333 0-9.081 4.179-9.081 9.729 0 5.549 3.748 9.73 9.081 9.73 3.386-.001 5.548-1.371 7.566-3.172zM39.706 0h7.351c.648 0 1.081.433 1.081 1.081v50.448c0 .649-.433 1.081-1.081 1.081h-7.351c-.648 0-1.081-.432-1.081-1.081V1.081c0-.648.433-1.081 1.081-1.081zM89.215 18.377v33.152c0 .649-.432 1.081-1.081 1.081h-7.062c-.648 0-1.009-.432-1.081-1.081l-.289-3.963c-2.45 3.459-6.053 5.982-10.521 5.982-7.928 0-13.405-5.478-13.405-14.92V18.377c0-.647.433-1.081 1.081-1.081h7.351c.649 0 1.081.434 1.081 1.081v18.522c0 5.837 3.387 7.856 6.774 7.856 5.117 0 7.639-4.324 7.639-6.848v-19.53c0-.647.433-1.081 1.081-1.081h7.351c.649 0 1.081.433 1.081 1.081zM133.967 35.025c0 10.307-7.208 18.523-17.081 18.523-4.613 0-8.144-2.092-10.666-5.046l-.289 3.026c-.072.649-.433 1.081-1.081 1.081h-6.63c-.648 0-1.081-.432-1.081-1.081V1.081C97.139.433 97.571 0 98.22 0h7.352c.648 0 1.081.433 1.081 1.081v20.035c2.595-2.739 6.054-4.612 10.234-4.612 9.872 0 17.08 8.216 17.08 18.521zm-9.154-.072c0-5.621-3.82-9.802-9.081-9.802-5.189 0-9.009 4.469-9.009 9.802 0 5.334 3.819 9.945 9.009 9.945 5.262 0 9.081-4.252 9.081-9.945zM174.247 31.422v20.107c0 .649-.432 1.081-1.081 1.081h-7.352c-.647 0-1.081-.432-1.081-1.081V33.152c0-5.839-3.171-7.855-6.629-7.855-5.333 0-7.784 5.26-7.784 6.918v19.314c0 .649-.432 1.081-1.081 1.081h-7.35c-.649 0-1.081-.432-1.081-1.081V1.081c0-.648.432-1.081 1.081-1.081h7.35c.649 0 1.081.433 1.081 1.081v21.981c2.307-3.748 6.054-6.559 11.17-6.559 7.207.001 12.757 5.478 12.757 14.919zM215.25 18.377v33.152c0 .649-.432 1.081-1.081 1.081h-7.062c-.649 0-1.009-.432-1.081-1.081l-.288-3.963c-2.451 3.459-6.054 5.982-10.522 5.982-7.927 0-13.404-5.478-13.404-14.92V18.377c0-.647.432-1.081 1.081-1.081h7.351c.648 0 1.081.434 1.081 1.081v18.522c0 5.837 3.388 7.856 6.775 7.856 5.115 0 7.639-4.324 7.639-6.848v-19.53c0-.647.433-1.081 1.081-1.081h7.351c.647 0 1.079.433 1.079 1.081zM260 35.025c0 10.307-7.208 18.523-17.079 18.523-4.614 0-8.145-2.092-10.668-5.046l-.287 3.026c-.072.649-.433 1.081-1.081 1.081h-6.631c-.649 0-1.081-.432-1.081-1.081V1.081c0-.648.432-1.081 1.081-1.081h7.35c.649 0 1.081.433 1.081 1.081v20.035c2.597-2.739 6.055-4.612 10.236-4.612 9.871 0 17.079 8.216 17.079 18.521zm-9.152-.072c0-5.621-3.82-9.802-9.08-9.802-5.19 0-9.01 4.469-9.01 9.802 0 5.334 3.819 9.945 9.01 9.945 5.259 0 9.08-4.252 9.08-9.945z"/></svg>